# xmcd CD database file
#
# Track frame offsets:
#	150
#	17059
#	27471
#	41078
#	60067
#	74047
#
# Disc length: 1210 seconds
#
# Revision: 0
# Processed by: cddbd v1.5.2PL0 Copyright (c) Steve Scherf et al.
# Submitted via: CDex 1.51
#
DISCID=4c04b806
DTITLE=Roy Krouse - Calgary Country
DYEAR=2002
DGENRE=Country
TTITLE0=Calgary Waltz
TTITLE1=Via Rail
TTITLE2=Alberta Woman
TTITLE3=The Sun Will Shine Tomorrow
TTITLE4=Year 'Round Angel with Lorna Nassichuk
TTITLE5=Calgary Waltz (Instrumental)
EXTD=YEAR: 2002
EXTT0=
EXTT1=
EXTT2=
EXTT3=
EXTT4=
EXTT5=
PLAYORDER=
